<?xml version="1.0" encoding="UTF-8" standalone="no"?>
<!-- Created with Inkscape (http://www.inkscape.org/) -->

<svg
   xmlns:dc="http://purl.org/dc/elements/1.1/"
   xmlns:cc="http://creativecommons.org/ns#"
   xmlns:rdf="http://www.w3.org/1999/02/22-rdf-syntax-ns#"
   xmlns:svg="http://www.w3.org/2000/svg"
   xmlns="http://www.w3.org/2000/svg"
   xmlns:sodipodi="http://sodipodi.sourceforge.net/DTD/sodipodi-0.dtd"
   xmlns:inkscape="http://www.inkscape.org/namespaces/inkscape"
   width="793.70081"
   height="1122.5197"
   viewBox="0 0 210 297"
   version="1.1"
   id="svg8"
   inkscape:version="0.92.3 (2405546, 2018-03-11)"
   sodipodi:docname="devmuangilogo.svg">
  <defs
     id="defs2" />
  <sodipodi:namedview
     id="base"
     pagecolor="#ffffff"
     bordercolor="#666666"
     borderopacity="1.0"
     inkscape:pageopacity="0.0"
     inkscape:pageshadow="2"
     inkscape:zoom="2.8284271"
     inkscape:cx="-118.14972"
     inkscape:cy="589.02192"
     inkscape:document-units="px"
     inkscape:current-layer="layer1"
     showgrid="false"
     units="px"
     showborder="false"
     inkscape:snap-bbox="true"
     inkscape:snap-intersection-paths="false"
     inkscape:object-nodes="false"
     inkscape:snap-others="false"
     inkscape:window-width="1366"
     inkscape:window-height="713"
     inkscape:window-x="0"
     inkscape:window-y="27"
     inkscape:window-maximized="1" />
  <metadata
     id="metadata5">
    <rdf:RDF>
      <cc:Work
         rdf:about="">
        <dc:format>image/svg+xml</dc:format>
        <dc:type
           rdf:resource="http://purl.org/dc/dcmitype/StillImage" />
        <dc:title />
      </cc:Work>
    </rdf:RDF>
  </metadata>
  <g
     inkscape:label="Layer 1"
     inkscape:groupmode="layer"
     id="layer1">
    <path
       style="color:#000000;font-style:normal;font-variant:normal;font-weight:normal;font-stretch:normal;font-size:medium;line-height:normal;font-family:sans-serif;font-variant-ligatures:normal;font-variant-position:normal;font-variant-caps:normal;font-variant-numeric:normal;font-variant-alternates:normal;font-feature-settings:normal;text-indent:0;text-align:start;text-decoration:none;text-decoration-line:none;text-decoration-style:solid;text-decoration-color:#000000;letter-spacing:normal;word-spacing:normal;text-transform:none;writing-mode:lr-tb;direction:ltr;text-orientation:mixed;dominant-baseline:auto;baseline-shift:baseline;text-anchor:start;white-space:normal;shape-padding:0;clip-rule:nonzero;display:inline;overflow:visible;visibility:visible;opacity:0.91199999;isolation:auto;mix-blend-mode:normal;color-interpolation:sRGB;color-interpolation-filters:linearRGB;solid-color:#000000;solid-opacity:1;vector-effect:none;fill:#ff5555;fill-opacity:1;fill-rule:nonzero;stroke:none;stroke-width:0.52916664;stroke-linecap:square;stroke-linejoin:round;stroke-miterlimit:4;stroke-dasharray:none;stroke-dashoffset:0;stroke-opacity:1;paint-order:markers fill stroke;color-rendering:auto;image-rendering:auto;shape-rendering:auto;text-rendering:auto;enable-background:accumulate"
       d="m -31.950358,135.81882 a 0.31543706,0.2081428 0 0 0 -0.316638,0.20731 v 12.81454 a 0.31543706,0.2081428 0 0 0 0.316638,0.20731 h 20.533391 a 0.31543706,0.2081428 0 0 0 0.316638,-0.20731 v -12.81454 a 0.31543706,0.2081428 0 0 0 -0.316638,-0.20731 z m 0.314791,0.41624 h 19.904427 v 12.39667 h -19.904427 z m 7.982469,0.19105 v 3.40963 a 4.7950453,4.6724713 0 0 0 -3.086293,-0.80851 4.7950453,4.6724713 0 0 0 -4.412597,4.90225 4.7950453,4.6724713 0 0 0 4.913427,4.42706 4.7950453,4.6724713 0 0 0 2.585463,-0.82273 v 0.86054 h 2.0372 v -4.09131 a 4.7950453,4.6724713 0 0 0 0.04742,-0.61746 l -0.0265,-0.48737 a 4.7950453,4.6724713 0 0 0 -0.02094,-0.16016 v -2.47876 l 3.654267,7.77531 0.008,-0.80323 0.01104,-1.08939 -3.673365,-7.81717 v -1.67799 -0.52071 z m 5.710564,10.01587 0.01971,1.89262 3.654885,-7.77775 v 7.8375 h 2.0372 v -11.44753 -0.52071 h -2.0372 v 2.19707 z"
       id="rect815"
       inkscape:connector-curvature="0"
       inkscape:export-filename="/home/dave/devmuangilogo1.png"
       inkscape:export-xdpi="95.995697"
       inkscape:export-ydpi="95.995697" />
  </g>
</svg>
