<?xml version="1.0" encoding="UTF-8" standalone="no"?>
<!-- Created with Inkscape (http://www.inkscape.org/) -->

<svg
   xmlns:dc="http://purl.org/dc/elements/1.1/"
   xmlns:cc="http://creativecommons.org/ns#"
   xmlns:rdf="http://www.w3.org/1999/02/22-rdf-syntax-ns#"
   xmlns:svg="http://www.w3.org/2000/svg"
   xmlns="http://www.w3.org/2000/svg"
   xmlns:sodipodi="http://sodipodi.sourceforge.net/DTD/sodipodi-0.dtd"
   xmlns:inkscape="http://www.inkscape.org/namespaces/inkscape"
   width="81.534462mm"
   height="21.944305mm"
   viewBox="0 0 81.534463 21.944306"
   version="1.1"
   id="svg3845"
   inkscape:version="0.92.3 (2405546, 2018-03-11)"
   sodipodi:docname="mylogo4.svg">
  <defs
     id="defs3839" />
  <sodipodi:namedview
     id="base"
     pagecolor="#ffffff"
     bordercolor="#666666"
     borderopacity="1.0"
     inkscape:pageopacity="0.0"
     inkscape:pageshadow="2"
     inkscape:zoom="0.35"
     inkscape:cx="622.65233"
     inkscape:cy="-125.67328"
     inkscape:document-units="mm"
     inkscape:current-layer="layer1"
     showgrid="false"
     inkscape:window-width="1366"
     inkscape:window-height="713"
     inkscape:window-x="0"
     inkscape:window-y="27"
     inkscape:window-maximized="1" />
  <metadata
     id="metadata3842">
    <rdf:RDF>
      <cc:Work
         rdf:about="">
        <dc:format>image/svg+xml</dc:format>
        <dc:type
           rdf:resource="http://purl.org/dc/dcmitype/StillImage" />
        <dc:title />
      </cc:Work>
    </rdf:RDF>
  </metadata>
  <g
     inkscape:label="Layer 1"
     inkscape:groupmode="layer"
     id="layer1"
     transform="translate(148.86843,-93.637971)">
    <g
       style="mix-blend-mode:darken;fill:#483737;image-rendering:optimizeQuality"
       id="g10"
       transform="matrix(0.24275528,0,0,0.35568441,-148.86843,93.518461)"
       onmouseover="color:black">
      <desc
         id="desc3738">logo</desc>
      <title
         id="title3736">mylogo</title>
      <path
         d="m 12.608,32.912 c 0,2.944 0.6613,5.312 1.984,7.104 1.3227,1.792 3.2853,2.688 5.888,2.688 0.8533,0 1.6427,-0.0213 2.368,-0.064 0.7253,-0.0853 1.3227,-0.1707 1.792,-0.256 V 25.04 c -0.5973,-0.384 -1.3867,-0.704 -2.368,-0.96 -0.9387,-0.256 -1.8987,-0.384 -2.88,-0.384 -4.5227,0 -6.784,3.072 -6.784,9.216 z m 21.568,16 c -0.8533,0.256 -1.8347,0.512 -2.944,0.768 -1.1093,0.2133 -2.2827,0.4053 -3.52,0.576 -1.1947,0.1707 -2.432,0.2987 -3.712,0.384 -1.2373,0.128 -2.432,0.192 -3.584,0.192 -2.7733,0 -5.248,-0.4053 -7.424,-1.216 C 10.816,48.8053 8.98133,47.6533 7.488,46.16 5.99467,44.624 4.84267,42.7893 4.032,40.656 3.264,38.48 2.88,36.048 2.88,33.36 c 0,-2.7307 0.34133,-5.184 1.024,-7.36 0.68267,-2.2187 1.664,-4.096 2.944,-5.632 1.28,-1.536 2.83733,-2.7093 4.672,-3.52 1.8773,-0.8107 4.0107,-1.216 6.4,-1.216 1.3227,0 2.496,0.128 3.52,0.384 1.0667,0.256 2.1333,0.6187 3.2,1.088 V 1.872 l 9.536,-1.536001 z m 7.329,-15.488 c 0,-2.9867 0.448,-5.5893 1.344,-7.808 0.9387,-2.2613 2.1547,-4.1387 3.648,-5.632 1.4933,-1.4933 3.2,-2.624 5.12,-3.392 1.9627,-0.768 3.968,-1.152 6.016,-1.152 4.7787,0 8.5547,1.472 11.328,4.416 2.7733,2.9013 4.16,7.1893 4.16,12.864 0,0.5547 -0.0213,1.1733 -0.064,1.856 -0.0427,0.64 -0.0853,1.216 -0.128,1.728 H 51.297 c 0.2133,1.9627 1.1307,3.52 2.752,4.672 1.6213,1.152 3.7973,1.728 6.528,1.728 1.7493,0 3.456,-0.1493 5.12,-0.448 1.7067,-0.3413 3.0933,-0.7467 4.16,-1.216 l 1.28,7.744 c -0.512,0.256 -1.1947,0.512 -2.048,0.768 -0.8533,0.256 -1.8133,0.4693 -2.88,0.64 -1.024,0.2133 -2.1333,0.384 -3.328,0.512 -1.1947,0.128 -2.3893,0.192 -3.584,0.192 -3.0293,0 -5.6747,-0.448 -7.936,-1.344 -2.2187,-0.896 -4.0747,-2.112 -5.568,-3.648 -1.4507,-1.5787 -2.5387,-3.4347 -3.264,-5.568 -0.6827,-2.1333 -1.024,-4.4373 -1.024,-6.912 z m 22.4,-3.648 c -0.0427,-0.8107 -0.192,-1.6 -0.448,-2.368 -0.2133,-0.768 -0.576,-1.4507 -1.088,-2.048 -0.4693,-0.5973 -1.088,-1.088 -1.856,-1.472 -0.7253,-0.384 -1.6427,-0.576 -2.752,-0.576 -1.0667,0 -1.984,0.192 -2.752,0.576 -0.768,0.3413 -1.408,0.8107 -1.92,1.408 -0.512,0.5973 -0.9173,1.3013 -1.216,2.112 -0.256,0.768 -0.448,1.5573 -0.576,2.368 z M 89.632,50 C 87.456,45.7333 85.2373,40.7413 82.976,35.024 80.7573,29.3067 78.6453,23.0773 76.64,16.336 h 10.112 c 0.4267,1.664 0.9173,3.4773 1.472,5.44 0.5973,1.92 1.1947,3.8827 1.792,5.888 0.64,1.9627 1.2587,3.8827 1.856,5.76 0.64,1.8773 1.2587,3.584 1.856,5.12 0.5547,-1.536 1.152,-3.2427 1.792,-5.12 0.64,-1.8773 1.2587,-3.7973 1.856,-5.76 0.64,-2.0053 1.2373,-3.968 1.792,-5.888 0.5973,-1.9627 1.109,-3.776 1.536,-5.44 h 9.856 c -2.005,6.7413 -4.139,12.9707 -6.4,18.688 C 101.941,40.7413 99.744,45.7333 97.568,50 Z M 128.083,5.648 c 0.769,1.408 1.643,3.15733 2.625,5.248 1.024,2.048 2.069,4.288 3.136,6.72 1.109,2.3893 2.197,4.8427 3.264,7.36 1.066,2.5173 2.069,4.8853 3.008,7.104 0.938,-2.2187 1.941,-4.5867 3.008,-7.104 1.066,-2.5173 2.133,-4.9707 3.2,-7.36 1.109,-2.432 2.154,-4.672 3.136,-6.72 1.024,-2.09067 1.92,-3.84 2.688,-5.248 h 9.088 c 0.426,2.944 0.81,6.2507 1.152,9.92 0.384,3.6267 0.704,7.424 0.96,11.392 0.298,3.9253 0.554,7.872 0.768,11.84 0.256,3.968 0.469,7.7013 0.64,11.2 h -9.728 c -0.128,-4.3093 -0.299,-9.0027 -0.512,-14.08 -0.214,-5.0773 -0.534,-10.1973 -0.96,-15.36 -0.768,1.792 -1.622,3.776 -2.56,5.952 -0.939,2.176 -1.878,4.352 -2.816,6.528 -0.896,2.176 -1.771,4.2667 -2.624,6.272 -0.854,1.9627 -1.579,3.648 -2.176,5.056 h -6.976 c -0.598,-1.408 -1.323,-3.0933 -2.176,-5.056 -0.854,-2.0053 -1.75,-4.096 -2.688,-6.272 -0.896,-2.176 -1.814,-4.352 -2.752,-6.528 -0.939,-2.176 -1.792,-4.16 -2.56,-5.952 -0.427,5.1627 -0.747,10.2827 -0.96,15.36 -0.214,5.0773 -0.384,9.7707 -0.512,14.08 h -9.728 c 0.17,-3.4987 0.362,-7.232 0.576,-11.2 0.256,-3.968 0.512,-7.9147 0.768,-11.84 0.298,-3.968 0.618,-7.7653 0.96,-11.392 0.384,-3.6693 0.789,-6.976 1.216,-9.92 z m 73.758,43.2 c -1.621,0.4693 -3.712,0.896 -6.272,1.28 -2.56,0.4267 -5.248,0.64 -8.064,0.64 -2.859,0 -5.248,-0.384 -7.168,-1.152 -1.877,-0.768 -3.371,-1.8347 -4.48,-3.2 -1.109,-1.408 -1.899,-3.072 -2.368,-4.992 -0.469,-1.92 -0.704,-4.032 -0.704,-6.336 V 16.336 h 9.536 v 17.6 c 0,3.072 0.405,5.2907 1.216,6.656 0.811,1.3653 2.325,2.048 4.544,2.048 0.683,0 1.408,-0.0213 2.176,-0.064 0.768,-0.0853 1.451,-0.1707 2.048,-0.256 V 16.336 h 9.536 z m 21.816,-5.504 c 0.938,0 1.834,-0.0213 2.688,-0.064 0.853,-0.0427 1.536,-0.1067 2.048,-0.192 v -7.232 c -0.384,-0.0853 -0.96,-0.1707 -1.728,-0.256 -0.768,-0.0853 -1.472,-0.128 -2.112,-0.128 -0.896,0 -1.75,0.064 -2.56,0.192 -0.768,0.0853 -1.451,0.2773 -2.048,0.576 -0.598,0.2987 -1.067,0.704 -1.408,1.216 -0.342,0.512 -0.512,1.152 -0.512,1.92 0,1.4933 0.49,2.5387 1.472,3.136 1.024,0.5547 2.41,0.832 4.16,0.832 z M 222.889,15.44 c 2.816,0 5.162,0.32 7.04,0.96 1.877,0.64 3.37,1.5573 4.48,2.752 1.152,1.1947 1.962,2.6453 2.432,4.352 0.469,1.7067 0.704,3.6053 0.704,5.696 v 19.84 c -1.366,0.2987 -3.264,0.64 -5.696,1.024 -2.432,0.4267 -5.376,0.64 -8.832,0.64 -2.176,0 -4.16,-0.192 -5.952,-0.576 -1.75,-0.384 -3.264,-1.0027 -4.544,-1.856 -1.28,-0.896 -2.262,-2.048 -2.944,-3.456 -0.683,-1.408 -1.024,-3.136 -1.024,-5.184 0,-1.9627 0.384,-3.6267 1.152,-4.992 0.81,-1.3653 1.877,-2.4533 3.2,-3.264 1.322,-0.8107 2.837,-1.3867 4.544,-1.728 1.706,-0.384 3.477,-0.576 5.311,-0.576 1.238,0 2.326,0.064 3.265,0.192 0.981,0.0853 1.77,0.2133 2.368,0.384 v -0.896 c 0,-1.6213 -0.491,-2.9227 -1.472,-3.904 -0.982,-0.9813 -2.688,-1.472 -5.12,-1.472 -1.622,0 -3.222,0.128 -4.8,0.384 -1.579,0.2133 -2.944,0.5333 -4.096,0.96 l -1.216,-7.68 c 0.554,-0.1707 1.237,-0.3413 2.048,-0.512 0.853,-0.2133 1.77,-0.384 2.752,-0.512 0.981,-0.1707 2.005,-0.2987 3.072,-0.384 1.109,-0.128 2.218,-0.192 3.328,-0.192 z m 23.279,2.048 c 1.621,-0.4693 3.712,-0.896 6.272,-1.28 2.56,-0.4267 5.248,-0.64 8.063,-0.64 2.859,0 5.227,0.384 7.105,1.152 1.92,0.7253 3.434,1.7707 4.544,3.136 1.109,1.3653 1.898,2.9867 2.368,4.864 0.469,1.8773 0.704,3.968 0.704,6.272 V 50 h -9.536 V 32.144 c 0,-3.072 -0.406,-5.248 -1.216,-6.528 -0.811,-1.28 -2.326,-1.92 -4.544,-1.92 -0.683,0 -1.408,0.0427 -2.176,0.128 -0.768,0.0427 -1.451,0.1067 -2.048,0.192 V 50 h -9.536 z m 45.815,14.592 c 0,5.3333 2.155,8 6.464,8 0.981,0 1.899,-0.128 2.752,-0.384 0.853,-0.256 1.579,-0.5547 2.176,-0.896 V 23.568 c -0.469,-0.0853 -1.024,-0.1493 -1.664,-0.192 -0.64,-0.0853 -1.387,-0.128 -2.24,-0.128 -2.517,0 -4.395,0.832 -5.632,2.496 -1.237,1.664 -1.856,3.776 -1.856,6.336 z m 20.928,13.696 c 0,5.504 -1.408,9.5787 -4.224,12.224 -2.773,2.688 -7.083,4.032 -12.928,4.032 -2.048,0 -4.096,-0.192 -6.144,-0.576 -2.048,-0.3413 -3.947,-0.8107 -5.696,-1.408 l 1.664,-8 c 1.493,0.5973 3.051,1.0667 4.672,1.408 1.664,0.3413 3.541,0.512 5.632,0.512 2.731,0 4.651,-0.5973 5.76,-1.792 1.152,-1.1947 1.728,-2.7307 1.728,-4.608 v -1.216 c -1.024,0.4693 -2.091,0.832 -3.2,1.088 -1.067,0.2133 -2.24,0.32 -3.52,0.32 -4.651,0 -8.213,-1.3653 -10.688,-4.096 -2.475,-2.7733 -3.712,-6.6347 -3.712,-11.584 0,-2.4747 0.384,-4.7147 1.152,-6.72 0.768,-2.048 1.877,-3.7973 3.328,-5.248 1.493,-1.4507 3.307,-2.56 5.44,-3.328 2.133,-0.8107 4.544,-1.216 7.232,-1.216 1.152,0 2.325,0.064 3.52,0.192 1.237,0.0853 2.453,0.2133 3.648,0.384 1.195,0.1707 2.325,0.384 3.392,0.64 1.109,0.2133 2.091,0.448 2.944,0.704 z M 331.391,50 h -9.536 V 16.336 h 9.536 z m 0.896,-43.392 c 0,1.74933 -0.576,3.136 -1.728,4.16 -1.109,0.9813 -2.432,1.472 -3.968,1.472 -1.536,0 -2.88,-0.4907 -4.032,-1.472 -1.109,-1.024 -1.664,-2.41067 -1.664,-4.16 0,-1.74934 0.555,-3.11467 1.664,-4.096 1.152,-1.024 2.496,-1.536002 4.032,-1.536002 1.536,0 2.859,0.512002 3.968,1.536002 1.152,0.98133 1.728,2.34666 1.728,4.096 z"
         id="path4"
         inkscape:connector-curvature="0"
         style="fill:#483737" />
      <path
         d="m 0,34 h 317.391 v 7.68 H 0 Z"
         id="path6"
         inkscape:connector-curvature="0"
         style="fill:#483737" />
      <path
         d="m 317.375,34 h 18.496 v 7.68 h -18.496 z"
         id="path8"
         inkscape:connector-curvature="0"
         style="fill:#483737" />
    </g>
  </g>
</svg>
