<svg width="336" height="63" viewBox="0 0 336 63" fill="none" xmlns="http://www.w3.org/2000/svg">
<rect width="336" height="63" fill="#E5E5E5" fill-opacity="0.3"/>
<g style="mix-blend-mode:darken">
<path d="M12.608 32.912C12.608 35.856 13.2693 38.224 14.592 40.016C15.9147 41.808 17.8773 42.704 20.48 42.704C21.3333 42.704 22.1227 42.6827 22.848 42.64C23.5733 42.5547 24.1707 42.4693 24.64 42.384V25.04C24.0427 24.656 23.2533 24.336 22.272 24.08C21.3333 23.824 20.3733 23.696 19.392 23.696C14.8693 23.696 12.608 26.768 12.608 32.912ZM34.176 48.912C33.3227 49.168 32.3413 49.424 31.232 49.68C30.1227 49.8933 28.9493 50.0853 27.712 50.256C26.5173 50.4267 25.28 50.5547 24 50.64C22.7627 50.768 21.568 50.832 20.416 50.832C17.6427 50.832 15.168 50.4267 12.992 49.616C10.816 48.8053 8.98133 47.6533 7.488 46.16C5.99467 44.624 4.84267 42.7893 4.032 40.656C3.264 38.48 2.88 36.048 2.88 33.36C2.88 30.6293 3.22133 28.176 3.904 26C4.58667 23.7813 5.568 21.904 6.848 20.368C8.128 18.832 9.68533 17.6587 11.52 16.848C13.3973 16.0373 15.5307 15.632 17.92 15.632C19.2427 15.632 20.416 15.76 21.44 16.016C22.5067 16.272 23.5733 16.6347 24.64 17.104V1.872L34.176 0.335999V48.912ZM41.505 33.424C41.505 30.4373 41.953 27.8347 42.849 25.616C43.7877 23.3547 45.0037 21.4773 46.497 19.984C47.9903 18.4907 49.697 17.36 51.617 16.592C53.5797 15.824 55.585 15.44 57.633 15.44C62.4117 15.44 66.1877 16.912 68.961 19.856C71.7343 22.7573 73.121 27.0453 73.121 32.72C73.121 33.2747 73.0997 33.8933 73.057 34.576C73.0143 35.216 72.9717 35.792 72.929 36.304H51.297C51.5103 38.2667 52.4277 39.824 54.049 40.976C55.6703 42.128 57.8463 42.704 60.577 42.704C62.3263 42.704 64.033 42.5547 65.697 42.256C67.4037 41.9147 68.7903 41.5093 69.857 41.04L71.137 48.784C70.625 49.04 69.9423 49.296 69.089 49.552C68.2357 49.808 67.2757 50.0213 66.209 50.192C65.185 50.4053 64.0757 50.576 62.881 50.704C61.6863 50.832 60.4917 50.896 59.297 50.896C56.2677 50.896 53.6223 50.448 51.361 49.552C49.1423 48.656 47.2863 47.44 45.793 45.904C44.3423 44.3253 43.2543 42.4693 42.529 40.336C41.8463 38.2027 41.505 35.8987 41.505 33.424ZM63.905 29.776C63.8623 28.9653 63.713 28.176 63.457 27.408C63.2437 26.64 62.881 25.9573 62.369 25.36C61.8997 24.7627 61.281 24.272 60.513 23.888C59.7877 23.504 58.8703 23.312 57.761 23.312C56.6943 23.312 55.777 23.504 55.009 23.888C54.241 24.2293 53.601 24.6987 53.089 25.296C52.577 25.8933 52.1717 26.5973 51.873 27.408C51.617 28.176 51.425 28.9653 51.297 29.776H63.905ZM89.632 50C87.456 45.7333 85.2373 40.7413 82.976 35.024C80.7573 29.3067 78.6453 23.0773 76.64 16.336H86.752C87.1787 18 87.6693 19.8133 88.224 21.776C88.8213 23.696 89.4187 25.6587 90.016 27.664C90.656 29.6267 91.2747 31.5467 91.872 33.424C92.512 35.3013 93.1307 37.008 93.728 38.544C94.2827 37.008 94.88 35.3013 95.52 33.424C96.16 31.5467 96.7787 29.6267 97.376 27.664C98.016 25.6587 98.6133 23.696 99.168 21.776C99.7653 19.8133 100.277 18 100.704 16.336H110.56C108.555 23.0773 106.421 29.3067 104.16 35.024C101.941 40.7413 99.744 45.7333 97.568 50H89.632ZM128.083 5.648C128.852 7.056 129.726 8.80533 130.708 10.896C131.732 12.944 132.777 15.184 133.844 17.616C134.953 20.0053 136.041 22.4587 137.108 24.976C138.174 27.4933 139.177 29.8613 140.116 32.08C141.054 29.8613 142.057 27.4933 143.124 24.976C144.19 22.4587 145.257 20.0053 146.324 17.616C147.433 15.184 148.478 12.944 149.46 10.896C150.484 8.80533 151.38 7.056 152.148 5.648H161.236C161.662 8.592 162.046 11.8987 162.388 15.568C162.772 19.1947 163.092 22.992 163.348 26.96C163.646 30.8853 163.902 34.832 164.116 38.8C164.372 42.768 164.585 46.5013 164.756 50H155.028C154.9 45.6907 154.729 40.9973 154.516 35.92C154.302 30.8427 153.982 25.7227 153.556 20.56C152.788 22.352 151.934 24.336 150.996 26.512C150.057 28.688 149.118 30.864 148.18 33.04C147.284 35.216 146.409 37.3067 145.556 39.312C144.702 41.2747 143.977 42.96 143.38 44.368H136.404C135.806 42.96 135.081 41.2747 134.228 39.312C133.374 37.3067 132.478 35.216 131.54 33.04C130.644 30.864 129.726 28.688 128.788 26.512C127.849 24.336 126.996 22.352 126.228 20.56C125.801 25.7227 125.481 30.8427 125.268 35.92C125.054 40.9973 124.884 45.6907 124.756 50H115.028C115.198 46.5013 115.39 42.768 115.604 38.8C115.86 34.832 116.116 30.8853 116.372 26.96C116.67 22.992 116.99 19.1947 117.332 15.568C117.716 11.8987 118.121 8.592 118.548 5.648H128.083ZM201.841 48.848C200.22 49.3173 198.129 49.744 195.569 50.128C193.009 50.5547 190.321 50.768 187.505 50.768C184.646 50.768 182.257 50.384 180.337 49.616C178.46 48.848 176.966 47.7813 175.857 46.416C174.748 45.008 173.958 43.344 173.489 41.424C173.02 39.504 172.785 37.392 172.785 35.088V16.336H182.321V33.936C182.321 37.008 182.726 39.2267 183.537 40.592C184.348 41.9573 185.862 42.64 188.081 42.64C188.764 42.64 189.489 42.6187 190.257 42.576C191.025 42.4907 191.708 42.4053 192.305 42.32V16.336H201.841V48.848ZM223.657 43.344C224.595 43.344 225.491 43.3227 226.345 43.28C227.198 43.2373 227.881 43.1733 228.393 43.088V35.856C228.009 35.7707 227.433 35.6853 226.665 35.6C225.897 35.5147 225.193 35.472 224.553 35.472C223.657 35.472 222.803 35.536 221.993 35.664C221.225 35.7493 220.542 35.9413 219.945 36.24C219.347 36.5387 218.878 36.944 218.537 37.456C218.195 37.968 218.025 38.608 218.025 39.376C218.025 40.8693 218.515 41.9147 219.497 42.512C220.521 43.0667 221.907 43.344 223.657 43.344ZM222.889 15.44C225.705 15.44 228.051 15.76 229.929 16.4C231.806 17.04 233.299 17.9573 234.409 19.152C235.561 20.3467 236.371 21.7973 236.841 23.504C237.31 25.2107 237.545 27.1093 237.545 29.2V49.04C236.179 49.3387 234.281 49.68 231.849 50.064C229.417 50.4907 226.473 50.704 223.017 50.704C220.841 50.704 218.857 50.512 217.065 50.128C215.315 49.744 213.801 49.1253 212.521 48.272C211.241 47.376 210.259 46.224 209.577 44.816C208.894 43.408 208.553 41.68 208.553 39.632C208.553 37.6693 208.937 36.0053 209.705 34.64C210.515 33.2747 211.582 32.1867 212.905 31.376C214.227 30.5653 215.742 29.9893 217.449 29.648C219.155 29.264 220.926 29.072 222.76 29.072C223.998 29.072 225.086 29.136 226.025 29.264C227.006 29.3493 227.795 29.4773 228.393 29.648V28.752C228.393 27.1307 227.902 25.8293 226.921 24.848C225.939 23.8667 224.233 23.376 221.801 23.376C220.179 23.376 218.579 23.504 217.001 23.76C215.422 23.9733 214.057 24.2933 212.905 24.72L211.689 17.04C212.243 16.8693 212.926 16.6987 213.737 16.528C214.59 16.3147 215.507 16.144 216.489 16.016C217.47 15.8453 218.494 15.7173 219.561 15.632C220.67 15.504 221.779 15.44 222.889 15.44ZM246.168 17.488C247.789 17.0187 249.88 16.592 252.44 16.208C255 15.7813 257.688 15.568 260.503 15.568C263.362 15.568 265.73 15.952 267.608 16.72C269.528 17.4453 271.042 18.4907 272.152 19.856C273.261 21.2213 274.05 22.8427 274.52 24.72C274.989 26.5973 275.224 28.688 275.224 30.992V50H265.688V32.144C265.688 29.072 265.282 26.896 264.472 25.616C263.661 24.336 262.146 23.696 259.928 23.696C259.245 23.696 258.52 23.7387 257.752 23.824C256.984 23.8667 256.301 23.9307 255.704 24.016V50H246.168V17.488ZM291.983 32.08C291.983 37.4133 294.138 40.08 298.447 40.08C299.428 40.08 300.346 39.952 301.199 39.696C302.052 39.44 302.778 39.1413 303.375 38.8V23.568C302.906 23.4827 302.351 23.4187 301.711 23.376C301.071 23.2907 300.324 23.248 299.471 23.248C296.954 23.248 295.076 24.08 293.839 25.744C292.602 27.408 291.983 29.52 291.983 32.08ZM312.911 45.776C312.911 51.28 311.503 55.3547 308.687 58C305.914 60.688 301.604 62.032 295.759 62.032C293.711 62.032 291.663 61.84 289.615 61.456C287.567 61.1147 285.668 60.6453 283.919 60.048L285.583 52.048C287.076 52.6453 288.634 53.1147 290.255 53.456C291.919 53.7973 293.796 53.968 295.887 53.968C298.618 53.968 300.538 53.3707 301.647 52.176C302.799 50.9813 303.375 49.4453 303.375 47.568V46.352C302.351 46.8213 301.284 47.184 300.175 47.44C299.108 47.6533 297.935 47.76 296.655 47.76C292.004 47.76 288.442 46.3947 285.967 43.664C283.492 40.8907 282.255 37.0293 282.255 32.08C282.255 29.6053 282.639 27.3653 283.407 25.36C284.175 23.312 285.284 21.5627 286.735 20.112C288.228 18.6613 290.042 17.552 292.175 16.784C294.308 15.9733 296.719 15.568 299.407 15.568C300.559 15.568 301.732 15.632 302.927 15.76C304.164 15.8453 305.38 15.9733 306.575 16.144C307.77 16.3147 308.9 16.528 309.967 16.784C311.076 16.9973 312.058 17.232 312.911 17.488V45.776ZM331.391 50H321.855V16.336H331.391V50ZM332.287 6.608C332.287 8.35733 331.711 9.744 330.559 10.768C329.45 11.7493 328.127 12.24 326.591 12.24C325.055 12.24 323.711 11.7493 322.559 10.768C321.45 9.744 320.895 8.35733 320.895 6.608C320.895 4.85866 321.45 3.49333 322.559 2.512C323.711 1.488 325.055 0.975998 326.591 0.975998C328.127 0.975998 329.45 1.488 330.559 2.512C331.711 3.49333 332.287 4.85866 332.287 6.608Z" fill="black"/>
<path d="M0 34H317.391V41.68H0V34Z" fill="black"/>
<path d="M317.375 34H335.871V41.68H317.375V34Z" fill="black"/>
</g>
</svg>
